<?xml version="1.0" encoding="UTF-8" standalone="no"?>
<svg
   xmlns:dc="http://purl.org/dc/elements/1.1/"
   xmlns:cc="http://creativecommons.org/ns#"
   xmlns:rdf="http://www.w3.org/1999/02/22-rdf-syntax-ns#"
   xmlns:svg="http://www.w3.org/2000/svg"
   xmlns="http://www.w3.org/2000/svg"
   xmlns:sodipodi="http://sodipodi.sourceforge.net/DTD/sodipodi-0.dtd"
   xmlns:inkscape="http://www.inkscape.org/namespaces/inkscape"
   width="27.160999"
   height="80"
   viewBox="0 0 7.1863474 21.166667"
   version="1.1"
   id="svg8"
   inkscape:version="1.0.2-2 (e86c870879, 2021-01-15)"
   sodipodi:docname="logo.svg">
  <defs
     id="defs2" />
  <sodipodi:namedview
     id="base"
     pagecolor="#ffffff"
     bordercolor="#666666"
     borderopacity="1.0"
     inkscape:pageopacity="0.0"
     inkscape:pageshadow="2"
     inkscape:zoom="2.8"
     inkscape:cx="116.04314"
     inkscape:cy="7.6840257"
     inkscape:document-units="mm"
     inkscape:current-layer="layer1"
     inkscape:document-rotation="0"
     showgrid="false"
     units="px"
     inkscape:window-width="1346"
     inkscape:window-height="952"
     inkscape:window-x="73"
     inkscape:window-y="0"
     inkscape:window-maximized="0" />
  <metadata
     id="metadata5">
    <rdf:RDF>
      <cc:Work
         rdf:about="">
        <dc:format>image/svg+xml</dc:format>
        <dc:type
           rdf:resource="http://purl.org/dc/dcmitype/StillImage" />
        <dc:title></dc:title>
      </cc:Work>
    </rdf:RDF>
  </metadata>
  <g
     inkscape:label="Layer 1"
     inkscape:groupmode="layer"
     id="layer1">
    <path
       style="fill:#000000;stroke-width:0.0407645"
       d="m 3.4878219,20.859552 c -0.0934,-0.184629 -0.2986793,-0.577198 -0.456159,-0.872388 l -0.2863092,-0.536718 0.1433496,-0.0846 c 0.0964,-0.0569 0.1760496,-0.154809 0.2431594,-0.298959 0.0991,-0.212789 0.0998,-0.22372 0.1001998,-1.469308 L 3.2325326,16.342649 2.8312035,15.94661 C 1.308357,14.443877 1.0246177,12.867311 2.0139353,11.405745 2.2219649,11.098415 2.7243637,10.592576 3.0189131,10.393867 L 3.2304125,10.251196 3.2314079,9.1403592 3.2324032,8.0295318 H 2.3173346 1.4022568 l 0.0424,0.1216297 c 0.047,0.1347296 0.1329298,0.2242094 0.3929191,0.4089791 0.2869994,0.2039695 0.3446493,0.3310891 0.3167093,0.6983683 -0.045,0.591769 -0.2714194,1.2519271 -0.4792389,1.3974981 -0.1278397,0.0895 -0.3040093,0.0791 -0.5420087,-0.032 C 0.860888,10.496916 0.3401092,10.078078 0.15848964,9.8402079 0.03183992,9.6743483 0.01201997,9.6183784 0.01201997,9.4266985 c 0,-0.1331397 0.04259989,-0.3450191 0.10657975,-0.5304687 C 0.22803948,8.5791505 0.23236947,8.3893409 0.13599966,8.1357415 L 0.09329978,8.0234118 0,7.1735037 0.02469994,6.8168145 C 0.06389985,6.2504259 0.29641931,5.5903774 0.62495855,5.1128586 1.1454173,4.3563903 2.0765852,3.7517617 2.9302932,3.6159221 l 0.3021893,-0.0481 V 2.9294336 c 0,-0.6178885 -0.004,-0.6451885 -0.1120997,-0.850238 C 3.0296829,1.9076959 2.9032133,1.7866762 2.7524436,1.7269564 2.7303436,1.7179564 3.6482415,-0.00104952 3.6744914,4.8082097e-7 3.7029914,0.00100047 4.5508695,1.6000867 4.5666893,1.6825965 c 0.005,0.0269 -0.0499,0.0855 -0.1222896,0.1303497 -0.0753,0.0466 -0.1752596,0.1687496 -0.2335695,0.2853493 -0.0932,0.1863196 -0.1030797,0.2581995 -0.1155197,0.8367781 l -0.013599,0.6329486 0.3193392,0.074 c 1.1897765,0.2756294 2.1916942,1.1737274 2.5836033,2.3159046 0.1244797,0.3627693 0.2011895,0.7600684 0.2016896,1.0445776 -0.0162,0.484169 -0.0782,0.893008 -0.1556597,1.1975673 C 6.9664839,8.4524808 6.6802445,9.0257495 6.474195,9.3144988 6.1563057,9.7599781 5.6275669,10.217197 4.8287788,10.737326 l -0.7402383,0.481989 v 2.138646 2.138644 L 4.29142,15.805624 c 0.4384191,0.667839 0.5987186,1.305757 0.4774089,1.899926 -0.076399,0.374419 -0.2391894,0.740489 -0.4530889,1.019137 -0.1113397,0.14504 -0.1458496,0.22352 -0.1285598,0.2924 0.031,0.123339 0.2097795,0.3339 0.3107994,0.365969 0.0438,0.01391 0.0797,0.04351 0.0797,0.0657 0,0.0402 -0.842828,1.659336 -0.8935079,1.716566 -0.0146,0.0165 -0.1029597,-0.121109 -0.1963695,-0.30574 z m -0.2644694,-8.149761 -0.0113,-0.624177 -0.1385598,0.264968 c -0.1836495,0.35118 -0.2476294,0.606329 -0.2482193,0.989828 -6.1e-4,0.352269 0.0957,0.701339 0.2777494,1.007637 l 0.1090297,0.18344 0.0113,-0.598759 c 0.006,-0.329318 0.006,-0.879638 0,-1.222937 z M 4.0885205,7.904132 V 8.9089797 9.788408 L 4.32291,9.6560883 C 4.4518296,9.5832885 4.6398592,9.4679487 4.740749,9.3997185 5.0225883,9.2091391 5.2653877,8.9704596 5.4420274,8.7103602 5.6083469,8.4654308 5.8380364,8.0169218 5.8395965,7.928212 M 3.2324625,6.1339961 c 0,-1.1948771 0.036999,-1.1107773 -0.4165891,-0.9461177 -0.6976683,0.2532393 -1.246497,0.8556879 -1.4391966,1.5798163 -0.0326,0.1222997 -0.0594,0.2636295 -0.0597,0.3140792 l 0.0853,0.9477679 h 0.915088 0.9150778 z M 5.8395965,7.928212 C 5.8389764,7.876012 5.9487962,7.5416029 5.9230965,7.2258036 5.8927963,6.8532745 5.7235968,6.4893053 5.6810568,6.3935155 5.5084772,6.0049365 5.1530381,5.6041675 4.7681189,5.364158 4.6673992,5.3013581 4.1609904,5.0944986 4.1079504,5.0944986 c -0.0107,0 -0.0195,0.4677789 -0.0195,1.0394975 V 7.904132"
       id="path95922-4"
       sodipodi:nodetypes="cscssscssscccccsssssssssccssscssscsssscssccsccccsssssssccscssscsscccsssccssccccccsssssc" />
  </g>
</svg>
